<svg width="48" height="48" viewBox="0 0 48 48" fill="none" xmlns="http://www.w3.org/2000/svg">
<path d="M24 0C37.2548 0 48 10.7452 48 24C48 37.2548 37.2548 48 24 48C10.7452 48 0 37.2548 0 24C0 10.7452 10.7452 0 24 0Z" fill="#DCFCE7"/>
<path d="M24 0C37.2548 0 48 10.7452 48 24C48 37.2548 37.2548 48 24 48C10.7452 48 0 37.2548 0 24C0 10.7452 10.7452 0 24 0Z" stroke="#E5E7EB"/>
<path d="M32 36H16V12H32V36Z" stroke="#E5E7EB"/>
<g clip-path="url(#clip0_281_1504)">
<path d="M24 15C24.1438 15 24.2875 15.0313 24.4188 15.0906L30.3031 17.5875C30.9906 17.8781 31.5031 18.5563 31.5 19.375C31.4844 22.475 30.2094 28.1469 24.825 30.725C24.3031 30.975 23.6969 30.975 23.175 30.725C17.7906 28.1469 16.5156 22.475 16.5 19.375C16.4969 18.5563 17.0094 17.8781 17.6969 17.5875L23.5844 15.0906C23.7125 15.0313 23.8563 15 24 15ZM24 17.0875V28.9C28.3125 26.8125 29.4719 22.1906 29.5 19.4187L24 17.0875Z" fill="#16A34A"/>
</g>
<defs>
<clipPath id="clip0_281_1504">
<path d="M16 15H32V31H16V15Z" fill="white"/>
</clipPath>
</defs>
</svg>
