<svg width="48" height="48" viewBox="0 0 48 48" fill="none" xmlns="http://www.w3.org/2000/svg">
<path d="M24 0C37.2548 0 48 10.7452 48 24C48 37.2548 37.2548 48 24 48C10.7452 48 0 37.2548 0 24C0 10.7452 10.7452 0 24 0Z" fill="#FEF9C3"/>
<path d="M24 0C37.2548 0 48 10.7452 48 24C48 37.2548 37.2548 48 24 48C10.7452 48 0 37.2548 0 24C0 10.7452 10.7452 0 24 0Z" stroke="#E5E7EB"/>
<path d="M29 36H19V12H29V36Z" stroke="#E5E7EB"/>
<g clip-path="url(#clip0_281_1515)">
<path d="M22.0005 17C22.0005 16.4696 22.2112 15.9609 22.5863 15.5858C22.9613 15.2107 23.47 15 24.0005 15C24.5309 15 25.0396 15.2107 25.4147 15.5858C25.7898 15.9609 26.0005 16.4696 26.0005 17C26.0005 17.5304 25.7898 18.0391 25.4147 18.4142C25.0396 18.7893 24.5309 19 24.0005 19C23.47 19 22.9613 18.7893 22.5863 18.4142C22.2112 18.0391 22.0005 17.5304 22.0005 17ZM23.5005 27V30C23.5005 30.5531 23.0536 31 22.5005 31C21.9473 31 21.5005 30.5531 21.5005 30V23.9937L20.8473 25.0312C20.5536 25.5 19.9348 25.6375 19.4692 25.3438C19.0036 25.05 18.8598 24.4344 19.1536 23.9688L20.4005 21.9906C21.1786 20.75 22.538 20 24.0005 20C25.463 20 26.8223 20.75 27.6005 21.9875L28.8473 23.9688C29.1411 24.4375 29.0005 25.0531 28.5348 25.3469C28.0692 25.6406 27.4505 25.5 27.1567 25.0344L26.5005 23.9937V30C26.5005 30.5531 26.0536 31 25.5005 31C24.9473 31 24.5005 30.5531 24.5005 30V27H23.5005Z" fill="#CA8A04"/>
</g>
<defs>
<clipPath id="clip0_281_1515">
<path d="M19 15H29V31H19V15Z" fill="white"/>
</clipPath>
</defs>
</svg>
