<svg width="49" height="48" viewBox="0 0 49 48" fill="none" xmlns="http://www.w3.org/2000/svg">
<path d="M24.5 0C37.7548 0 48.5 10.7452 48.5 24C48.5 37.2548 37.7548 48 24.5 48C11.2452 48 0.5 37.2548 0.5 24C0.5 10.7452 11.2452 0 24.5 0Z" fill="#FEE2E2"/>
<path d="M24.5 0C37.7548 0 48.5 10.7452 48.5 24C48.5 37.2548 37.7548 48 24.5 48C11.2452 48 0.5 37.2548 0.5 24C0.5 10.7452 11.2452 0 24.5 0Z" stroke="#E5E7EB"/>
<path d="M34.5 36H14.5V12H34.5V36Z" stroke="#E5E7EB"/>
<g clip-path="url(#clip0_281_1498)">
<path d="M17.5 17C17.5 16.4469 17.9469 16 18.5 16H19.5C20.0531 16 20.5 16.4469 20.5 17V22V24V29C20.5 29.5531 20.0531 30 19.5 30H18.5C17.9469 30 17.5 29.5531 17.5 29V27H16.5C15.9469 27 15.5 26.5531 15.5 26V24C14.9469 24 14.5 23.5531 14.5 23C14.5 22.4469 14.9469 22 15.5 22V20C15.5 19.4469 15.9469 19 16.5 19H17.5V17ZM31.5 17V19H32.5C33.0531 19 33.5 19.4469 33.5 20V22C34.0531 22 34.5 22.4469 34.5 23C34.5 23.5531 34.0531 24 33.5 24V26C33.5 26.5531 33.0531 27 32.5 27H31.5V29C31.5 29.5531 31.0531 30 30.5 30H29.5C28.9469 30 28.5 29.5531 28.5 29V24V22V17C28.5 16.4469 28.9469 16 29.5 16H30.5C31.0531 16 31.5 16.4469 31.5 17ZM27.5 22V24H21.5V22H27.5Z" fill="#DC2626"/>
</g>
<defs>
<clipPath id="clip0_281_1498">
<path d="M14.5 15H34.5V31H14.5V15Z" fill="white"/>
</clipPath>
</defs>
</svg>
