<svg width="49" height="48" viewBox="0 0 49 48" fill="none" xmlns="http://www.w3.org/2000/svg">
<path d="M24.5 0C37.7548 0 48.5 10.7452 48.5 24C48.5 37.2548 37.7548 48 24.5 48C11.2452 48 0.5 37.2548 0.5 24C0.5 10.7452 11.2452 0 24.5 0Z" fill="#F3E8FF"/>
<path d="M24.5 0C37.7548 0 48.5 10.7452 48.5 24C48.5 37.2548 37.7548 48 24.5 48C11.2452 48 0.5 37.2548 0.5 24C0.5 10.7452 11.2452 0 24.5 0Z" stroke="#E5E7EB"/>
<path d="M30.5 36H18.5V12H30.5V36Z" stroke="#E5E7EB"/>
<g clip-path="url(#clip0_281_1520)">
<path d="M20 15C19.1719 15 18.5 15.6719 18.5 16.5V29.5C18.5 30.3281 19.1719 31 20 31H23V28.5C23 27.6719 23.6719 27 24.5 27C25.3281 27 26 27.6719 26 28.5V31H29C29.8281 31 30.5 30.3281 30.5 29.5V16.5C30.5 15.6719 29.8281 15 29 15H20ZM20.5 22.5C20.5 22.225 20.725 22 21 22H22C22.275 22 22.5 22.225 22.5 22.5V23.5C22.5 23.775 22.275 24 22 24H21C20.725 24 20.5 23.775 20.5 23.5V22.5ZM24 22H25C25.275 22 25.5 22.225 25.5 22.5V23.5C25.5 23.775 25.275 24 25 24H24C23.725 24 23.5 23.775 23.5 23.5V22.5C23.5 22.225 23.725 22 24 22ZM26.5 22.5C26.5 22.225 26.725 22 27 22H28C28.275 22 28.5 22.225 28.5 22.5V23.5C28.5 23.775 28.275 24 28 24H27C26.725 24 26.5 23.775 26.5 23.5V22.5ZM21 18H22C22.275 18 22.5 18.225 22.5 18.5V19.5C22.5 19.775 22.275 20 22 20H21C20.725 20 20.5 19.775 20.5 19.5V18.5C20.5 18.225 20.725 18 21 18ZM23.5 18.5C23.5 18.225 23.725 18 24 18H25C25.275 18 25.5 18.225 25.5 18.5V19.5C25.5 19.775 25.275 20 25 20H24C23.725 20 23.5 19.775 23.5 19.5V18.5ZM27 18H28C28.275 18 28.5 18.225 28.5 18.5V19.5C28.5 19.775 28.275 20 28 20H27C26.725 20 26.5 19.775 26.5 19.5V18.5C26.5 18.225 26.725 18 27 18Z" fill="#9333EA"/>
</g>
<defs>
<clipPath id="clip0_281_1520">
<path d="M18.5 15H30.5V31H18.5V15Z" fill="white"/>
</clipPath>
</defs>
</svg>
