<svg width="53" height="48" viewBox="0 0 53 48" fill="none" xmlns="http://www.w3.org/2000/svg">
<path d="M28.1875 0C41.4423 0 52.1875 10.7452 52.1875 24C52.1875 37.2548 41.4423 48 28.1875 48H24C10.7452 48 0 37.2548 0 24C0 10.7452 10.7452 0 24 0H28.1875Z" fill="#CCFBF1"/>
<path d="M28.1875 0C41.4423 0 52.1875 10.7452 52.1875 24C52.1875 37.2548 41.4423 48 28.1875 48H24C10.7452 48 0 37.2548 0 24C0 10.7452 10.7452 0 24 0H28.1875Z" stroke="#E5E7EB"/>
<path d="M32 36H16V12H32V36Z" stroke="#E5E7EB"/>
<path d="M32 31H16V15H32V31Z" stroke="#E5E7EB"/>
<path d="M20.225 18.6688L19.4094 21H28.5906L27.775 18.6688C27.6344 18.2687 27.2563 18 26.8313 18H21.1687C20.7437 18 20.3656 18.2687 20.225 18.6688ZM17.2375 21.15L18.3375 18.0094C18.7594 16.8063 19.8937 16 21.1687 16H26.8313C28.1062 16 29.2406 16.8063 29.6625 18.0094L30.7625 21.15C31.4875 21.45 32 22.1656 32 23V27.5V29C32 29.5531 31.5531 30 31 30H30C29.4469 30 29 29.5531 29 29V27.5H19V29C19 29.5531 18.5531 30 18 30H17C16.4469 30 16 29.5531 16 29V27.5V23C16 22.1656 16.5125 21.45 17.2375 21.15ZM20 24C20 23.7348 19.8946 23.4804 19.7071 23.2929C19.5196 23.1054 19.2652 23 19 23C18.7348 23 18.4804 23.1054 18.2929 23.2929C18.1054 23.4804 18 23.7348 18 24C18 24.2652 18.1054 24.5196 18.2929 24.7071C18.4804 24.8946 18.7348 25 19 25C19.2652 25 19.5196 24.8946 19.7071 24.7071C19.8946 24.5196 20 24.2652 20 24ZM29 25C29.2652 25 29.5196 24.8946 29.7071 24.7071C29.8946 24.5196 30 24.2652 30 24C30 23.7348 29.8946 23.4804 29.7071 23.2929C29.5196 23.1054 29.2652 23 29 23C28.7348 23 28.4804 23.1054 28.2929 23.2929C28.1054 23.4804 28 23.7348 28 24C28 24.2652 28.1054 24.5196 28.2929 24.7071C28.4804 24.8946 28.7348 25 29 25Z" fill="#0D9488"/>
</svg>
