<svg width="48" height="48" viewBox="0 0 48 48" fill="none" xmlns="http://www.w3.org/2000/svg">
<path d="M24 0C37.2548 0 48 10.7452 48 24C48 37.2548 37.2548 48 24 48C10.7452 48 0 37.2548 0 24C0 10.7452 10.7452 0 24 0Z" fill="#DBEAFE"/>
<path d="M24 0C37.2548 0 48 10.7452 48 24C48 37.2548 37.2548 48 24 48C10.7452 48 0 37.2548 0 24C0 10.7452 10.7452 0 24 0Z" stroke="#E5E7EB"/>
<path d="M33 36H15V12H33V36Z" stroke="#E5E7EB"/>
<path d="M33 31H15V15H33V31Z" stroke="#E5E7EB"/>
<path d="M19 18.9906C19 17.3406 20.3406 16 21.9906 16C23.5 16 24.7719 17.125 24.9594 18.6219L24.9906 18.8781C25.0594 19.425 24.6719 19.925 24.1219 19.9938C23.5719 20.0625 23.075 19.675 23.0063 19.125L22.975 18.8688C22.9125 18.3719 22.4906 18 21.9906 18C21.4438 18 21 18.4437 21 18.9906V22H27V18.9906C27 17.3406 28.3406 16 29.9906 16C31.5 16 32.7719 17.125 32.9594 18.6219L32.9906 18.8781C33.0594 19.425 32.6719 19.925 32.1219 19.9938C31.5719 20.0625 31.075 19.675 31.0063 19.125L30.975 18.8688C30.9125 18.3719 30.4906 18 29.9906 18C29.4438 18 29 18.4437 29 18.9906V26.2812C28.95 26.3125 28.8969 26.3438 28.85 26.3781C28.2875 26.7656 27.5969 27.0125 27 27.0125V24H21V27.0156C20.4063 27.0156 19.7125 26.7688 19.1531 26.3813C19.1031 26.3469 19.0531 26.3125 19 26.2844V18.9906ZM24.5781 27.1844C25.2813 27.6687 26.1406 28 27 28C27.8406 28 28.7313 27.6625 29.4188 27.1844C29.7906 26.9187 30.2969 26.9406 30.6438 27.2375C31.0938 27.6094 31.6594 27.8937 32.225 28.025C32.7625 28.15 33.0969 28.6875 32.9719 29.225C32.8469 29.7625 32.3094 30.0969 31.7719 29.9719C31.0063 29.7937 30.3688 29.4563 29.9531 29.1906C29.0469 29.6781 28.0313 30 27 30C26.0031 30 25.1063 29.6906 24.4875 29.4094C24.3063 29.325 24.1406 29.2437 24 29.1687C23.8594 29.2437 23.6969 29.3281 23.5125 29.4094C22.8938 29.6906 21.9969 30 21 30C19.9688 30 18.9531 29.6781 18.0469 29.1938C17.6281 29.4563 16.9938 29.7969 16.2281 29.975C15.6906 30.1 15.1531 29.7656 15.0281 29.2281C14.9031 28.6906 15.2375 28.1531 15.775 28.0281C16.3406 27.8969 16.9063 27.6125 17.3563 27.2406C17.7031 26.9469 18.2094 26.925 18.5813 27.1875C19.2719 27.6625 20.1594 28 21 28C21.8594 28 22.7188 27.6687 23.4219 27.1844C23.7688 26.9375 24.2313 26.9375 24.5781 27.1844Z" fill="#2563EB"/>
</svg>
